<svg xmlns="http://www.w3.org/2000/svg" id="Layer_2" data-name="Layer 2" viewBox="0 0 495.14 60"><g id="Layer_1-2" data-name="Layer 1"><path fill="#fff" d="M52.36 21.19H39.92c-.23-1.61-.69-3.04-1.39-4.3-.7-1.26-1.6-2.33-2.7-3.22-1.1-.89-2.36-1.57-3.79-2.05-1.43-.47-2.98-.71-4.65-.71-3.01 0-5.63.74-7.87 2.23s-3.97 3.65-5.2 6.48c-1.23 2.83-1.85 6.26-1.85 10.3s.62 7.63 1.86 10.45c1.24 2.82 2.98 4.95 5.21 6.39 2.23 1.44 4.82 2.16 7.76 2.16 1.65 0 3.18-.22 4.59-.65 1.41-.44 2.67-1.07 3.76-1.92 1.1-.84 2.01-1.87 2.74-3.08.73-1.21 1.24-2.59 1.52-4.15l12.44.06c-.32 2.67-1.12 5.24-2.4 7.71-1.28 2.47-2.99 4.68-5.14 6.62-2.15 1.94-4.71 3.48-7.67 4.6-2.96 1.13-6.31 1.69-10.04 1.69-5.19 0-9.83-1.17-13.91-3.52s-7.3-5.75-9.66-10.2C1.17 41.63-.01 36.24-.01 29.92s1.19-11.74 3.58-16.19c2.39-4.45 5.62-7.85 9.72-10.18C17.39 1.2 21.99.03 27.1.03c3.37 0 6.5.47 9.39 1.42 2.89.95 5.45 2.32 7.69 4.13 2.23 1.81 4.06 4.02 5.47 6.63 1.41 2.61 2.31 5.61 2.71 8.98ZM114.66 29.92c0 6.34-1.2 11.74-3.59 16.19-2.4 4.45-5.65 7.85-9.77 10.19-4.12 2.34-8.75 3.51-13.88 3.51s-9.81-1.17-13.92-3.52c-4.11-2.35-7.36-5.75-9.74-10.2-2.39-4.45-3.58-9.84-3.58-16.16s1.19-11.74 3.58-16.19c2.39-4.45 5.63-7.85 9.74-10.18C77.6 1.2 82.24.03 87.41.03s9.76 1.17 13.88 3.51c4.12 2.34 7.38 5.73 9.77 10.18 2.4 4.45 3.59 9.85 3.59 16.19Zm-12.47 0c0-4.11-.61-7.58-1.83-10.4-1.22-2.82-2.94-4.96-5.16-6.42s-4.81-2.19-7.78-2.19-5.57.73-7.78 2.19c-2.22 1.46-3.93 3.6-5.16 6.42-1.22 2.82-1.83 6.29-1.83 10.4s.61 7.58 1.83 10.4c1.22 2.82 2.94 4.96 5.16 6.42s4.81 2.19 7.78 2.19 5.57-.73 7.78-2.19c2.22-1.46 3.93-3.6 5.16-6.42 1.22-2.82 1.83-6.29 1.83-10.4ZM136.05.82V59h-12.3V.82h12.3ZM194.86.82V59h-10.62l-25.31-36.62h-.43V59h-12.3V.82H157l25.11 36.59h.51V.82h12.24ZM207.67.82h6.14l21.11 50.68h.51L256.53.82h6.14V59h-5V12.05h-.45l-19.63 46.96h-4.83l-19.63-46.96h-.45v46.96h-5V.82ZM283.43.82V59h-5.31V.82h5.31ZM344.2.82V59h-5.17l-34.38-48.72h-.45V59h-5.31V.82h5.14l34.49 48.78h.45V.82h5.23ZM359.65 59.01V.82h33.75v4.77h-28.44v21.9h26.65v4.77h-26.65v21.96h29.01v4.77h-34.32ZM407.13 59.01V.82h18.78c4.13 0 7.58.74 10.35 2.23 2.78 1.49 4.87 3.54 6.28 6.16 1.41 2.62 2.12 5.63 2.12 9.02s-.71 6.38-2.12 8.98c-1.41 2.59-3.5 4.62-6.26 6.08-2.77 1.46-6.19 2.19-10.28 2.19h-15.99v-4.86h15.85c3.03 0 5.55-.5 7.57-1.51 2.02-1 3.52-2.43 4.52-4.29.99-1.86 1.49-4.05 1.49-6.59s-.5-4.76-1.51-6.66c-1-1.9-2.51-3.38-4.53-4.42-2.02-1.04-4.56-1.56-7.63-1.56h-13.32V59h-5.31Zm25.65-26.25 14.32 26.25h-6.14l-14.18-26.25h6ZM489.2 15.37c-.32-3.24-1.75-5.81-4.29-7.73-2.54-1.91-5.73-2.87-9.57-2.87-2.71 0-5.09.46-7.14 1.39-2.05.93-3.66 2.21-4.83 3.85-1.16 1.64-1.75 3.5-1.75 5.58 0 1.53.33 2.88.99 4.03.66 1.16 1.56 2.15 2.68 2.97 1.13.82 2.38 1.53 3.75 2.12 1.37.59 2.76 1.08 4.16 1.48l6.14 1.76c1.86.51 3.71 1.17 5.57 1.96 1.86.8 3.56 1.79 5.1 3 1.54 1.2 2.78 2.67 3.72 4.4s1.41 3.81 1.41 6.24c0 3.11-.81 5.9-2.42 8.38-1.61 2.48-3.92 4.45-6.93 5.89-3.01 1.45-6.62 2.17-10.82 2.17-3.96 0-7.4-.66-10.31-1.97-2.92-1.32-5.21-3.14-6.88-5.47s-2.6-5.03-2.81-8.1h5.46c.19 2.29.95 4.23 2.27 5.82s3.05 2.8 5.17 3.62c2.12.82 4.49 1.24 7.1 1.24 2.9 0 5.48-.49 7.74-1.46 2.26-.98 4.04-2.34 5.34-4.09 1.3-1.75 1.95-3.79 1.95-6.12 0-1.97-.51-3.62-1.54-4.96-1.02-1.34-2.45-2.46-4.28-3.37s-3.94-1.71-6.35-2.41l-6.96-2.05c-4.56-1.36-8.11-3.25-10.62-5.65s-3.78-5.47-3.78-9.2c0-3.12.84-5.88 2.51-8.25 1.68-2.38 3.95-4.23 6.82-5.57 2.87-1.33 6.09-2 9.67-2s6.82.66 9.6 1.99c2.79 1.33 5 3.15 6.63 5.47 1.64 2.32 2.51 4.96 2.63 7.91h-5.14Z" class=""/></g></svg>